# xmcd
#
# Track frame offsets:
#	150
#	17923
#	36330
#	74679
#	93037
#	112962
#	154349
#	164448
#	171063
#
# Disc length: 2668 seconds
#
# Revision: 1
# Processed by: cddbd v1.5.1PL0 Copyright (c) Steve Scherf et al.
# Submitted via: CDex 1.50Beta5
#
DISCID=710a6a09
DTITLE=Various Artist - ぽぴゅら
DYEAR=1900
DGENRE=
TTITLE0=ゴダイゴ/モンキーマジック
TTITLE1=ゴダイゴ/ガンダーラ
TTITLE2=XJAPAN/Forever Love
TTITLE3=Do As Infinity/深い森
TTITLE4=倉木まい/Secret of My Heart
TTITLE5=長淵剛/とんぼ
TTITLE6=ワイルドアームズ/荒野の果てへ
TTITLE7=ワイルドアームズ/ダンジョン(勇気)
TTITLE8=エドワード・エルガー/威風堂々
EXTD=
EXTT0=
EXTT1=
EXTT2=
EXTT3=
EXTT4=
EXTT5=
EXTT6=
EXTT7=
EXTT8=
PLAYORDER=
